<mxfile host="app.diagrams.net">
  <diagram name="SMS Page">
    <mxgraph model="1" shadow="0" fold="1" fit="0" pageScale="1.5" grid="0" math="0" units="px" tooltips="1" guides="1"
     dx="1" dy="1" page="0" hgrid="0" background="#ffffff" version="14.6.11">
      <root>
        <mxCell id="0" />
        <mxCell id="1" parent="0" />
        <!-- SmsApplication -->
        <mxCell id="2" value="&lt;b&gt;SmsApplication&lt;/b&gt;&lt;br/&gt;+ main(args: String[]): void" style="rounded=0;
        whiteSpace=wrap;html=1;" vertex="1" parent="1">
          <mxGeometry x="300" y="60" width="180" height="60" as="geometry" />
        </mxCell>
        <!-- AbstractSmsController -->
        <mxCell id="3" value="&lt;b&gt;AbstractSmsController&lt;/b&gt;&lt;br/&gt;- smsService: AbstractSmsService&lt;
        br/&gt;+ AbstractSmsController(smsService: AbstractSmsService)&lt;br/&gt;+ sendSms(smsRequest: SmsRequestDTO):
         ResponseEntity&lt;String&gt;" style="rounded=0;whiteSpace=wrap;html=1;" vertex="1" parent="1">
          <mxGeometry x="60" y="140" width="220" height="100" as="geometry" />
        </mxCell>
        <!-- AbstractSmsService -->
        <mxCell id="4" value="&lt;b&gt;AbstractSmsService&lt;/b&gt;&lt;br/&gt;- apiUrl: String&lt;br/&gt;- apiKey:
         String&lt;br/&gt;+ AbstractSmsService(apiUrl: String, apiKey: String)&lt;br/&gt;+ sendSms(smsRequest: SmsRequestDTO):
          String" style="rounded=0;whiteSpace=wrap;html=1;" vertex="1" parent="1">
          <mxGeometry x="60" y="300" width="220" height="100" as="geometry" />
        </mxCell>
        <!-- SmsRequestDTO -->
        <mxCell id="5" value="&lt;b&gt;SmsRequestDTO&lt;/b&gt;&lt;br/&gt;- mobile: String&lt;br/&gt;
        - templateId: String&lt;br/&gt;- parameters: List&lt;Parameter&gt;&lt;br/&gt;&lt;br/&gt;+ Parameter&lt;br/&gt;+ SmsRequestDTO()" style="rounded=0;whiteSpace=wrap;html=1;" vertex="1" parent="1">
          <mxGeometry x="60" y="460" width="220" height="120" as="geometry" />
        </mxCell>
        <!-- Controller -->
        <mxCell id="6" value="&lt;b&gt;Controller&lt;/b&gt;&lt;br/&gt;+ Controller(smsService: AbstractSmsService)&lt;
        br/&gt;+ sendSms(smsRequest: SmsRequestDTO): ResponseEntity&lt;String&gt;" style="rounded=0;whiteSpace=wrap;html=1;"
         vertex="1" parent="1">
          <mxGeometry x="300" y="140" width="180" height="80" as="geometry" />
        </mxCell>
        <!-- ServiceImp -->
        <mxCell id="7" value="&lt;b&gt;ServiceImp&lt;/b&gt;&lt;br/&gt;+ ServiceImp(apiUrl: String, apiKey: String)&lt;
        br/&gt;+ sendSms(smsRequest: SmsRequestDTO): String" style="rounded=0;whiteSpace=wrap;html=1;" vertex="1" parent="1">
          <mxGeometry x="300" y="300" width="180" height="60" as="geometry" />
        </mxCell>
        <!-- Associations -->
        <mxCell id="8" style="edgeStyle=orthogonalEdgeStyle;rounded=0;orthogonalLoop=1;html=1;" edge="1" parent="1" source="2" target="6">
          <mxGeometry relative="1" as="geometry" />
        </mxCell>
        <mxCell id="9" style="edgeStyle=orthogonalEdgeStyle;rounded=0;orthogonalLoop=1;html=1;" edge="1" parent="1" source="3" target="4">
          <mxGeometry relative="1" as="geometry" />
        </mxCell>
        <mxCell id="10" style="edgeStyle=orthogonalEdgeStyle;rounded=0;orthogonalLoop=1;html=1;" edge="1" parent="1" source="3" target="6">
          <mxGeometry relative="1" as="geometry" />
        </mxCell>
        <mxCell id="11" style="edgeStyle=orthogonalEdgeStyle;rounded=0;orthogonalLoop=1;html=1;" edge="1" parent="1" source="4" target="5">
          <mxGeometry relative="1" as="geometry" />
        </mxCell>
        <mxCell id="12" style="edgeStyle=orthogonalEdgeStyle;rounded=0;orthogonalLoop=1;html=1;" edge="1" parent="1" source="4" target="7">
          <mxGeometry relative="1" as="geometry" />
        </mxCell>
      </root>
    </mxgraph>
  </diagram>
</mxfile>
